<?xml version="1.0" encoding="UTF-8" standalone="no"?>
<!-- Created with Inkscape (http://www.inkscape.org/) -->

<svg
   xmlns:dc="http://purl.org/dc/elements/1.1/"
   xmlns:cc="http://creativecommons.org/ns#"
   xmlns:rdf="http://www.w3.org/1999/02/22-rdf-syntax-ns#"
   xmlns:svg="http://www.w3.org/2000/svg"
   xmlns="http://www.w3.org/2000/svg"
   version="1.1"
   width="24.4487"
   height="51.752121"
   id="svg20792">
  <defs
     id="defs20794" />
  <metadata
     id="metadata20797">
    <rdf:RDF>
      <cc:Work
         rdf:about="">
        <dc:format>image/svg+xml</dc:format>
        <dc:type
           rdf:resource="http://purl.org/dc/dcmitype/StillImage" />
        <dc:title></dc:title>
      </cc:Work>
    </rdf:RDF>
  </metadata>
  <g
     transform="translate(-362.77565,-506.48612)"
     id="layer1">
    <g
       transform="matrix(1.25,0,0,-1.25,385.32385,507.75074)"
       id="g11749">
      <path
         d="m 0,0 -16.626,0 c 0,0 -0.466,-0.037 -0.466,-0.514 l 0,-3.776 c 0,-1.52 0.269,-3.951 1.254,-8.968 0.982,-5.016 2.772,-16.036 2.772,-18.848 0,-2.812 -0.921,-4.896 -1.701,-6.307 -0.62,-1.125 0.182,-1.977 1.527,-1.977 l 9.855,0 c 1.344,0 2.147,0.852 1.526,1.977 -0.78,1.411 -1.7,3.495 -1.7,6.307 0,2.812 1.788,13.832 2.773,18.848 0.985,5.017 1.253,7.448 1.253,8.968 l 0,3.776 C 0.467,-0.037 0,0 0,0"
         id="path11751"
         style="fill:#f7943a;fill-opacity:1;fill-rule:nonzero;stroke:none" />
    </g>
    <g
       transform="matrix(1.25,0,0,-1.25,384.01915,513.18386)"
       id="g11753">
      <path
         d="m 0,0 c 0,-0.321 -0.308,-0.581 -0.687,-0.581 l -13.401,0 c -0.379,0 -0.687,0.26 -0.687,0.581 l 0,3.877 c 0,0.321 0.308,0.581 0.687,0.581 l 13.401,0 C -0.308,4.458 0,4.198 0,3.877 L 0,0 z"
         id="path11755"
         style="fill:#ffffff;fill-opacity:1;fill-rule:nonzero;stroke:none" />
    </g>
    <g
       transform="matrix(1.25,0,0,-1.25,369.15025,507.46137)"
       id="g11757">
      <path
         d="m 0,0 c 0,-0.364 -0.51,-0.66 -1.14,-0.66 -0.629,0 -1.14,0.296 -1.14,0.66 0,0.365 0.511,0.66 1.14,0.66 C -0.51,0.66 0,0.365 0,0"
         id="path11759"
         style="fill:#ffffff;fill-opacity:1;fill-rule:nonzero;stroke:none" />
    </g>
    <g
       transform="matrix(1.25,0,0,-1.25,372.22485,507.31112)"
       id="g11761">
      <path
         d="m 0,0 c 0,-0.364 -0.51,-0.66 -1.14,-0.66 -0.629,0 -1.14,0.296 -1.14,0.66 0,0.365 0.511,0.66 1.14,0.66 C -0.51,0.66 0,0.365 0,0"
         id="path11763"
         style="fill:#ffffff;fill-opacity:1;fill-rule:nonzero;stroke:none" />
    </g>
    <g
       transform="matrix(1.25,0,0,-1.25,374.47475,507.46112)"
       id="g11765">
      <path
         d="m 0,0 c 0,-0.364 -0.51,-0.66 -1.14,-0.66 -0.63,0 -1.14,0.296 -1.14,0.66 0,0.365 0.51,0.66 1.14,0.66 C -0.51,0.66 0,0.365 0,0"
         id="path11767"
         style="fill:#ffffff;fill-opacity:1;fill-rule:nonzero;stroke:none" />
    </g>
    <g
       transform="matrix(1.25,0,0,-1.25,376.72465,507.76099)"
       id="g11769">
      <path
         d="m 0,0 c 0,-0.364 -0.51,-0.66 -1.14,-0.66 -0.63,0 -1.14,0.296 -1.14,0.66 0,0.365 0.51,0.66 1.14,0.66 C -0.51,0.66 0,0.365 0,0"
         id="path11771"
         style="fill:#ffffff;fill-opacity:1;fill-rule:nonzero;stroke:none" />
    </g>
    <g
       transform="matrix(1.25,0,0,-1.25,378.82445,507.61124)"
       id="g11773">
      <path
         d="m 0,0 c 0,-0.364 -0.51,-0.66 -1.14,-0.66 -0.63,0 -1.14,0.296 -1.14,0.66 0,0.365 0.51,0.66 1.14,0.66 C -0.51,0.66 0,0.365 0,0"
         id="path11775"
         style="fill:#ffffff;fill-opacity:1;fill-rule:nonzero;stroke:none" />
    </g>
    <g
       transform="matrix(1.25,0,0,-1.25,381.37445,507.46112)"
       id="g11777">
      <path
         d="m 0,0 c 0,-0.364 -0.51,-0.66 -1.14,-0.66 -0.63,0 -1.14,0.296 -1.14,0.66 0,0.365 0.51,0.66 1.14,0.66 C -0.51,0.66 0,0.365 0,0"
         id="path11779"
         style="fill:#ffffff;fill-opacity:1;fill-rule:nonzero;stroke:none" />
    </g>
    <g
       transform="matrix(1.25,0,0,-1.25,383.47425,507.46112)"
       id="g11781">
      <path
         d="m 0,0 c 0,-0.364 -0.51,-0.66 -1.14,-0.66 -0.63,0 -1.14,0.296 -1.14,0.66 0,0.365 0.51,0.66 1.14,0.66 C -0.51,0.66 0,0.365 0,0"
         id="path11783"
         style="fill:#ffffff;fill-opacity:1;fill-rule:nonzero;stroke:none" />
    </g>
    <g
       transform="matrix(1.25,0,0,-1.25,384.82425,507.91112)"
       id="g11785">
      <path
         d="m 0,0 c 0,-0.364 -0.51,-0.66 -1.14,-0.66 -0.629,0 -1.14,0.296 -1.14,0.66 0,0.365 0.511,0.66 1.14,0.66 C -0.51,0.66 0,0.365 0,0"
         id="path11787"
         style="fill:#ffffff;fill-opacity:1;fill-rule:nonzero;stroke:none" />
    </g>
    <g
       transform="matrix(1.25,0,0,-1.25,367.87525,509.33624)"
       id="g11789">
      <path
         d="m 0,0 c 0,-0.364 -0.51,-0.66 -1.14,-0.66 -0.63,0 -1.14,0.296 -1.14,0.66 0,0.365 0.51,0.66 1.14,0.66 C -0.51,0.66 0,0.365 0,0"
         id="path11791"
         style="fill:#ffffff;fill-opacity:1;fill-rule:nonzero;stroke:none" />
    </g>
    <g
       transform="matrix(1.25,0,0,-1.25,367.87545,510.46112)"
       id="g11793">
      <path
         d="m 0,0 c 0,-0.364 -0.51,-0.66 -1.14,-0.66 -0.63,0 -1.14,0.296 -1.14,0.66 0,0.365 0.51,0.66 1.14,0.66 C -0.51,0.66 0,0.365 0,0"
         id="path11795"
         style="fill:#ffffff;fill-opacity:1;fill-rule:nonzero;stroke:none" />
    </g>
    <g
       transform="matrix(1.25,0,0,-1.25,384.52425,510.31124)"
       id="g11797">
      <path
         d="m 0,0 c 0,-0.364 -0.51,-0.66 -1.14,-0.66 -0.629,0 -1.14,0.296 -1.14,0.66 0,0.365 0.511,0.66 1.14,0.66 C -0.51,0.66 0,0.365 0,0"
         id="path11799"
         style="fill:#ffffff;fill-opacity:1;fill-rule:nonzero;stroke:none" />
    </g>
    <g
       transform="matrix(1.25,0,0,-1.25,384.82425,511.51111)"
       id="g11801">
      <path
         d="m 0,0 c 0,-0.364 -0.51,-0.66 -1.14,-0.66 -0.629,0 -1.14,0.296 -1.14,0.66 0,0.365 0.511,0.66 1.14,0.66 C -0.51,0.66 0,0.365 0,0"
         id="path11803"
         style="fill:#ffffff;fill-opacity:1;fill-rule:nonzero;stroke:none" />
    </g>
    <g
       transform="matrix(1.25,0,0,-1.25,384.67435,513.16074)"
       id="g11805">
      <path
         d="m 0,0 c 0,-0.364 -0.51,-0.66 -1.14,-0.66 -0.629,0 -1.14,0.296 -1.14,0.66 0,0.365 0.511,0.66 1.14,0.66 C -0.51,0.66 0,0.365 0,0"
         id="path11807"
         style="fill:#ffffff;fill-opacity:1;fill-rule:nonzero;stroke:none" />
    </g>
    <g
       transform="matrix(1.25,0,0,-1.25,382.87475,513.01087)"
       id="g11809">
      <path
         d="m 0,0 c 0,-0.364 -0.51,-0.66 -1.14,-0.66 -0.629,0 -1.14,0.296 -1.14,0.66 0,0.365 0.511,0.66 1.14,0.66 C -0.51,0.66 0,0.365 0,0"
         id="path11811"
         style="fill:#ffffff;fill-opacity:1;fill-rule:nonzero;stroke:none" />
    </g>
    <g
       transform="matrix(1.25,0,0,-1.25,379.12465,513.46086)"
       id="g11813">
      <path
         d="m 0,0 c 0,-0.364 -0.51,-0.66 -1.14,-0.66 -0.63,0 -1.14,0.296 -1.14,0.66 0,0.365 0.51,0.66 1.14,0.66 C -0.51,0.66 0,0.365 0,0"
         id="path11815"
         style="fill:#ffffff;fill-opacity:1;fill-rule:nonzero;stroke:none" />
    </g>
    <g
       transform="matrix(1.25,0,0,-1.25,381.82435,513.68612)"
       id="g11817">
      <path
         d="m 0,0 c 0,-0.364 -0.51,-0.66 -1.14,-0.66 -0.629,0 -1.14,0.296 -1.14,0.66 0,0.365 0.511,0.66 1.14,0.66 C -0.51,0.66 0,0.365 0,0"
         id="path11819"
         style="fill:#ffffff;fill-opacity:1;fill-rule:nonzero;stroke:none" />
    </g>
    <g
       transform="matrix(1.25,0,0,-1.25,377.02495,513.61112)"
       id="g11821">
      <path
         d="m 0,0 c 0,-0.41 -0.51,-0.742 -1.14,-0.742 -0.629,0 -1.14,0.332 -1.14,0.742 0,0.41 0.511,0.743 1.14,0.743 C -0.51,0.743 0,0.41 0,0"
         id="path11823"
         style="fill:#ffffff;fill-opacity:1;fill-rule:nonzero;stroke:none" />
    </g>
    <g
       transform="matrix(1.25,0,0,-1.25,374.17515,512.56087)"
       id="g11825">
      <path
         d="m 0,0 c 0,-0.205 -0.591,-0.371 -1.32,-0.371 -0.729,0 -1.32,0.166 -1.32,0.371 0,0.205 0.591,0.371 1.32,0.371 C -0.591,0.371 0,0.205 0,0"
         id="path11827"
         style="fill:#ffffff;fill-opacity:1;fill-rule:nonzero;stroke:none" />
    </g>
    <g
       transform="matrix(1.25,0,0,-1.25,372.22535,513.46112)"
       id="g11829">
      <path
         d="m 0,0 c 0,-0.41 -0.51,-0.742 -1.14,-0.742 -0.63,0 -1.14,0.332 -1.14,0.742 0,0.41 0.51,0.743 1.14,0.743 C -0.51,0.743 0,0.41 0,0"
         id="path11831"
         style="fill:#ffffff;fill-opacity:1;fill-rule:nonzero;stroke:none" />
    </g>
    <g
       transform="matrix(1.25,0,0,-1.25,371.32535,514.66124)"
       id="g11833">
      <path
         d="m 0,0 c 0,-0.41 -0.51,-0.742 -1.14,-0.742 -0.629,0 -1.14,0.332 -1.14,0.742 0,0.41 0.511,0.743 1.14,0.743 C -0.51,0.743 0,0.41 0,0"
         id="path11835"
         style="fill:#ffffff;fill-opacity:1;fill-rule:nonzero;stroke:none" />
    </g>
    <g
       transform="matrix(1.25,0,0,-1.25,372.22535,515.86087)"
       id="g11837">
      <path
         d="m 0,0 c 0,-0.41 -0.51,-0.742 -1.14,-0.742 -0.63,0 -1.14,0.332 -1.14,0.742 0,0.41 0.51,0.743 1.14,0.743 C -0.51,0.743 0,0.41 0,0"
         id="path11839"
         style="fill:#ffffff;fill-opacity:1;fill-rule:nonzero;stroke:none" />
    </g>
    <g
       transform="matrix(1.25,0,0,-1.25,374.17535,514.58974)"
       id="g11841">
      <path
         d="M 0,0 C 0,-0.539 -0.672,-0.977 -1.5,-0.977 -2.328,-0.977 -3,-0.539 -3,0 -3,0.54 -2.328,0.977 -1.5,0.977 -0.672,0.977 0,0.54 0,0"
         id="path11843"
         style="fill:#ffffff;fill-opacity:1;fill-rule:nonzero;stroke:none" />
    </g>
    <g
       transform="matrix(1.25,0,0,-1.25,373.72515,517.28987)"
       id="g11845">
      <path
         d="M 0,0 C 0,-0.539 -0.672,-0.977 -1.5,-0.977 -2.328,-0.977 -3,-0.539 -3,0 -3,0.54 -2.328,0.977 -1.5,0.977 -0.672,0.977 0,0.54 0,0"
         id="path11847"
         style="fill:#ffffff;fill-opacity:1;fill-rule:nonzero;stroke:none" />
    </g>
    <g
       transform="matrix(1.25,0,0,-1.25,373.34985,515.86087)"
       id="g11849">
      <path
         d="m 0,0 c 0,-0.41 -0.51,-0.742 -1.14,-0.742 -0.63,0 -1.14,0.332 -1.14,0.742 0,0.41 0.51,0.743 1.14,0.743 C -0.51,0.743 0,0.41 0,0"
         id="path11851"
         style="fill:#ffffff;fill-opacity:1;fill-rule:nonzero;stroke:none" />
    </g>
    <g
       transform="matrix(1.25,0,0,-1.25,371.17485,516.01111)"
       id="g11853">
      <path
         d="m 0,0 c 0,-0.653 -0.51,-1.182 -1.14,-1.182 -0.63,0 -1.14,0.529 -1.14,1.182 0,0.653 0.51,1.182 1.14,1.182 C -0.51,1.182 0,0.653 0,0"
         id="path11855"
         style="fill:#ffffff;fill-opacity:1;fill-rule:nonzero;stroke:none" />
    </g>
    <g
       transform="matrix(1.25,0,0,-1.25,371.88765,518.53249)"
       id="g11857">
      <path
         d="m 0,0 c 0,-0.41 -0.282,-0.742 -0.63,-0.742 -0.348,0 -0.63,0.332 -0.63,0.742 0,0.41 0.282,0.743 0.63,0.743 C -0.282,0.743 0,0.41 0,0"
         id="path11859"
         style="fill:#ffffff;fill-opacity:1;fill-rule:nonzero;stroke:none" />
    </g>
    <g
       transform="matrix(1.25,0,0,-1.25,371.58775,519.46086)"
       id="g11861">
      <path
         d="m 0,0 c 0,-0.41 -0.282,-0.742 -0.63,-0.742 -0.348,0 -0.63,0.332 -0.63,0.742 0,0.41 0.282,0.743 0.63,0.743 C -0.282,0.743 0,0.41 0,0"
         id="path11863"
         style="fill:#ffffff;fill-opacity:1;fill-rule:nonzero;stroke:none" />
    </g>
    <g
       transform="matrix(1.25,0,0,-1.25,372.33765,520.36074)"
       id="g11865">
      <path
         d="m 0,0 c 0,-0.41 -0.282,-0.742 -0.63,-0.742 -0.348,0 -0.63,0.332 -0.63,0.742 0,0.41 0.282,0.743 0.63,0.743 C -0.282,0.743 0,0.41 0,0"
         id="path11867"
         style="fill:#ffffff;fill-opacity:1;fill-rule:nonzero;stroke:none" />
    </g>
    <g
       transform="matrix(1.25,0,0,-1.25,372.03775,521.68237)"
       id="g11869">
      <path
         d="m 0,0 c 0,-0.41 -0.282,-0.742 -0.63,-0.742 -0.348,0 -0.63,0.332 -0.63,0.742 0,0.41 0.282,0.743 0.63,0.743 C -0.282,0.743 0,0.41 0,0"
         id="path11871"
         style="fill:#ffffff;fill-opacity:1;fill-rule:nonzero;stroke:none" />
    </g>
    <g
       transform="matrix(1.25,0,0,-1.25,373.23765,521.38249)"
       id="g11873">
      <path
         d="m 0,0 c 0,-0.41 -0.282,-0.742 -0.63,-0.742 -0.348,0 -0.63,0.332 -0.63,0.742 0,0.41 0.282,0.743 0.63,0.743 C -0.282,0.743 0,0.41 0,0"
         id="path11875"
         style="fill:#ffffff;fill-opacity:1;fill-rule:nonzero;stroke:none" />
    </g>
    <g
       transform="matrix(1.25,0,0,-1.25,373.38725,519.91061)"
       id="g11877">
      <path
         d="m 0,0 c 0,-0.41 -0.282,-0.742 -0.63,-0.742 -0.348,0 -0.63,0.332 -0.63,0.742 0,0.41 0.282,0.743 0.63,0.743 C -0.282,0.743 0,0.41 0,0"
         id="path11879"
         style="fill:#ffffff;fill-opacity:1;fill-rule:nonzero;stroke:none" />
    </g>
    <g
       transform="matrix(1.25,0,0,-1.25,373.23285,522.87737)"
       id="g11881">
      <path
         d="m 0,0 c 0,-0.41 -0.282,-0.742 -0.63,-0.742 -0.348,0 -0.63,0.332 -0.63,0.742 0,0.41 0.282,0.743 0.63,0.743 C -0.282,0.743 0,0.41 0,0"
         id="path11883"
         style="fill:#ffffff;fill-opacity:1;fill-rule:nonzero;stroke:none" />
    </g>
    <g
       transform="matrix(1.25,0,0,-1.25,372.48725,522.76024)"
       id="g11885">
      <path
         d="m 0,0 c 0,-0.41 -0.282,-0.742 -0.63,-0.742 -0.348,0 -0.63,0.332 -0.63,0.742 0,0.41 0.282,0.743 0.63,0.743 C -0.282,0.743 0,0.41 0,0"
         id="path11887"
         style="fill:#ffffff;fill-opacity:1;fill-rule:nonzero;stroke:none" />
    </g>
    <g
       transform="matrix(1.25,0,0,-1.25,373.08725,523.96037)"
       id="g11889">
      <path
         d="m 0,0 c 0,-0.41 -0.282,-0.742 -0.63,-0.742 -0.348,0 -0.63,0.332 -0.63,0.742 0,0.41 0.282,0.743 0.63,0.743 C -0.282,0.743 0,0.41 0,0"
         id="path11891"
         style="fill:#ffffff;fill-opacity:1;fill-rule:nonzero;stroke:none" />
    </g>
    <g
       transform="matrix(1.25,0,0,-1.25,372.63725,525.16024)"
       id="g11893">
      <path
         d="m 0,0 c 0,-0.41 -0.282,-0.742 -0.63,-0.742 -0.348,0 -0.63,0.332 -0.63,0.742 0,0.41 0.282,0.743 0.63,0.743 C -0.282,0.743 0,0.41 0,0"
         id="path11895"
         style="fill:#ffffff;fill-opacity:1;fill-rule:nonzero;stroke:none" />
    </g>
    <g
       transform="matrix(1.25,0,0,-1.25,373.08975,526.65599)"
       id="g11897">
      <path
         d="m 0,0 c 0,-0.333 -0.229,-0.603 -0.512,-0.603 -0.282,0 -0.512,0.27 -0.512,0.603 0,0.333 0.23,0.603 0.512,0.603 C -0.229,0.603 0,0.333 0,0"
         id="path11899"
         style="fill:#ffffff;fill-opacity:1;fill-rule:nonzero;stroke:none" />
    </g>
    <g
       transform="matrix(1.25,0,0,-1.25,372.33765,518.26074)"
       id="g11901">
      <path
         d="m 0,0 c 0,-0.41 -0.282,-0.742 -0.63,-0.742 -0.348,0 -0.63,0.332 -0.63,0.742 0,0.41 0.282,0.743 0.63,0.743 C -0.282,0.743 0,0.41 0,0"
         id="path11903"
         style="fill:#ffffff;fill-opacity:1;fill-rule:nonzero;stroke:none" />
    </g>
    <g
       transform="matrix(1.25,0,0,-1.25,372.78765,519.31049)"
       id="g11905">
      <path
         d="m 0,0 c 0,-0.41 -0.282,-0.742 -0.63,-0.742 -0.348,0 -0.63,0.332 -0.63,0.742 0,0.41 0.282,0.743 0.63,0.743 C -0.282,0.743 0,0.41 0,0"
         id="path11907"
         style="fill:#ffffff;fill-opacity:1;fill-rule:nonzero;stroke:none" />
    </g>
    <g
       transform="matrix(1.25,0,0,-1.25,373.53745,518.26049)"
       id="g11909">
      <path
         d="m 0,0 c 0,-0.41 -0.282,-0.742 -0.63,-0.742 -0.348,0 -0.63,0.332 -0.63,0.742 0,0.41 0.282,0.743 0.63,0.743 C -0.282,0.743 0,0.41 0,0"
         id="path11911"
         style="fill:#ffffff;fill-opacity:1;fill-rule:nonzero;stroke:none" />
    </g>
    <g
       transform="matrix(1.25,0,0,-1.25,369.07515,513.91112)"
       id="g11913">
      <path
         d="m 0,0 c 0,-0.41 -0.51,-0.742 -1.14,-0.742 -0.63,0 -1.14,0.332 -1.14,0.742 0,0.41 0.51,0.743 1.14,0.743 C -0.51,0.743 0,0.41 0,0"
         id="path11915"
         style="fill:#ffffff;fill-opacity:1;fill-rule:nonzero;stroke:none" />
    </g>
    <g
       transform="matrix(1.25,0,0,-1.25,367.27515,512.71099)"
       id="g11917">
      <path
         d="m 0,0 c 0,-0.41 -0.51,-0.742 -1.14,-0.742 -0.629,0 -1.14,0.332 -1.14,0.742 0,0.41 0.511,0.743 1.14,0.743 C -0.51,0.743 0,0.41 0,0"
         id="path11919"
         style="fill:#ffffff;fill-opacity:1;fill-rule:nonzero;stroke:none" />
    </g>
    <g
       transform="matrix(1.25,0,0,-1.25,366.22515,511.51087)"
       id="g11921">
      <path
         d="m 0,0 c 0,-0.41 -0.51,-0.742 -1.14,-0.742 -0.63,0 -1.14,0.332 -1.14,0.742 0,0.41 0.51,0.743 1.14,0.743 C -0.51,0.743 0,0.41 0,0"
         id="path11923"
         style="fill:#ffffff;fill-opacity:1;fill-rule:nonzero;stroke:none" />
    </g>
    <g
       transform="matrix(1.25,0,0,-1.25,365.77535,509.56136)"
       id="g11925">
      <path
         d="m 0,0 c 0,-0.41 -0.51,-0.742 -1.14,-0.742 -0.63,0 -1.14,0.332 -1.14,0.742 0,0.41 0.51,0.743 1.14,0.743 C -0.51,0.743 0,0.41 0,0"
         id="path11927"
         style="fill:#ffffff;fill-opacity:1;fill-rule:nonzero;stroke:none" />
    </g>
    <g
       transform="matrix(1.25,0,0,-1.25,366.52545,507.91137)"
       id="g11929">
      <path
         d="m 0,0 c 0,-0.41 -0.51,-0.742 -1.14,-0.742 -0.629,0 -1.14,0.332 -1.14,0.742 0,0.41 0.511,0.743 1.14,0.743 C -0.51,0.743 0,0.41 0,0"
         id="path11931"
         style="fill:#ffffff;fill-opacity:1;fill-rule:nonzero;stroke:none" />
    </g>
    <g
       transform="matrix(1.25,0,0,-1.25,365.62565,510.46112)"
       id="g11933">
      <path
         d="m 0,0 c 0,-0.41 -0.51,-0.742 -1.14,-0.742 -0.63,0 -1.14,0.332 -1.14,0.742 0,0.41 0.51,0.743 1.14,0.743 C -0.51,0.743 0,0.41 0,0"
         id="path11935"
         style="fill:#ffffff;fill-opacity:1;fill-rule:nonzero;stroke:none" />
    </g>
    <g
       transform="matrix(1.25,0,0,-1.25,365.77565,513.31087)"
       id="g11937">
      <path
         d="m 0,0 c 0,-0.41 -0.51,-0.742 -1.14,-0.742 -0.63,0 -1.14,0.332 -1.14,0.742 0,0.41 0.51,0.743 1.14,0.743 C -0.51,0.743 0,0.41 0,0"
         id="path11939"
         style="fill:#ffffff;fill-opacity:1;fill-rule:nonzero;stroke:none" />
    </g>
    <g
       transform="matrix(1.25,0,0,-1.25,385.87425,508.66149)"
       id="g11941">
      <path
         d="m 0,0 c 0,-0.41 -0.51,-0.742 -1.14,-0.742 -0.63,0 -1.14,0.332 -1.14,0.742 0,0.41 0.51,0.743 1.14,0.743 C -0.51,0.743 0,0.41 0,0"
         id="path11943"
         style="fill:#ffffff;fill-opacity:1;fill-rule:nonzero;stroke:none" />
    </g>
    <g
       transform="matrix(1.25,0,0,-1.25,386.47425,510.16124)"
       id="g11945">
      <path
         d="m 0,0 c 0,-0.41 -0.51,-0.742 -1.14,-0.742 -0.63,0 -1.14,0.332 -1.14,0.742 0,0.41 0.51,0.743 1.14,0.743 C -0.51,0.743 0,0.41 0,0"
         id="path11947"
         style="fill:#ffffff;fill-opacity:1;fill-rule:nonzero;stroke:none" />
    </g>
    <g
       transform="matrix(1.25,0,0,-1.25,387.22435,509.86112)"
       id="g11949">
      <path
         d="m 0,0 c 0,-0.41 -0.51,-0.742 -1.14,-0.742 -0.63,0 -1.14,0.332 -1.14,0.742 0,0.41 0.51,0.743 1.14,0.743 C -0.51,0.743 0,0.41 0,0"
         id="path11951"
         style="fill:#ffffff;fill-opacity:1;fill-rule:nonzero;stroke:none" />
    </g>
    <g
       transform="matrix(1.25,0,0,-1.25,386.62445,513.46086)"
       id="g11953">
      <path
         d="m 0,0 c 0,-0.41 -0.51,-0.742 -1.14,-0.742 -0.629,0 -1.14,0.332 -1.14,0.742 0,0.41 0.511,0.743 1.14,0.743 C -0.51,0.743 0,0.41 0,0"
         id="path11955"
         style="fill:#ffffff;fill-opacity:1;fill-rule:nonzero;stroke:none" />
    </g>
    <g
       transform="matrix(1.25,0,0,-1.25,386.77415,512.11136)"
       id="g11957">
      <path
         d="m 0,0 c 0,-0.41 -0.51,-0.742 -1.14,-0.742 -0.629,0 -1.14,0.332 -1.14,0.742 0,0.41 0.511,0.743 1.14,0.743 C -0.51,0.743 0,0.41 0,0"
         id="path11959"
         style="fill:#ffffff;fill-opacity:1;fill-rule:nonzero;stroke:none" />
    </g>
    <g
       transform="matrix(1.25,0,0,-1.25,386.62435,511.06162)"
       id="g11961">
      <path
         d="m 0,0 c 0,-0.41 -0.51,-0.742 -1.14,-0.742 -0.629,0 -1.14,0.332 -1.14,0.742 0,0.41 0.511,0.743 1.14,0.743 C -0.51,0.743 0,0.41 0,0"
         id="path11963"
         style="fill:#ffffff;fill-opacity:1;fill-rule:nonzero;stroke:none" />
    </g>
    <g
       transform="matrix(1.25,0,0,-1.25,386.77415,508.21149)"
       id="g11965">
      <path
         d="m 0,0 c 0,-0.41 -0.51,-0.742 -1.14,-0.742 -0.629,0 -1.14,0.332 -1.14,0.742 0,0.41 0.511,0.743 1.14,0.743 C -0.51,0.743 0,0.41 0,0"
         id="path11967"
         style="fill:#ffffff;fill-opacity:1;fill-rule:nonzero;stroke:none" />
    </g>
  </g>
</svg>
