<svg xmlns:dc="http://purl.org/dc/elements/1.1/" xmlns:cc="http://creativecommons.org/ns#" xmlns:rdf="http://www.w3.org/1999/02/22-rdf-syntax-ns#" xmlns:svg="http://www.w3.org/2000/svg" xmlns="http://www.w3.org/2000/svg" version="1.1" id="pilsner-glass" style="position:absolute;margin-left: -100%;"><defs id="defs20794"/><metadata id="metadata20797"><rdf:RDF><cc:Work rdf:about=""><dc:format>image/svg+xml</dc:format><dc:type rdf:resource="http://purl.org/dc/dcmitype/StillImage"/><dc:title/></cc:Work></rdf:RDF></metadata><g transform="translate(-362.77565,-506.48612)" id="layer1"><g transform="matrix(1.25,0,0,-1.25,385.32385,507.75074)" id="g11749"><path d="m 0 0 -16.6 0 c 0 0 -0.5 -0 -0.5 -0.5 l 0 -3.8 c 0 -1.5 0.3 -4 1.3 -9 1 -5 2.8 -16 2.8 -18.8 0 -2.8 -0.9 -4.9 -1.7 -6.3 -0.6 -1.1 0.2 -2 1.5 -2 l 9.9 0 c 1.3 0 2.1 0.9 1.5 2 -0.8 1.4 -1.7 3.5 -1.7 6.3 0 2.8 1.8 13.8 2.8 18.8 1 5 1.3 7.4 1.3 9 l 0 3.8 C 0.5 -0 0 0 0 0" id="path11751" class="glass-fill"/></g><g transform="matrix(1.25,0,0,-1.25,384.01915,513.18386)" id="g11753"><path d="m 0 0 c 0 -0.3 -0.3 -0.6 -0.7 -0.6 l -13.4 0 c -0.4 0 -0.7 0.3 -0.7 0.6 l 0 3.9 c 0 0.3 0.3 0.6 0.7 0.6 l 13.4 0 C -0.3 4.5 0 4.2 0 3.9 L 0 0 z" id="path11755" class="glass-foam"/></g><g transform="matrix(1.25,0,0,-1.25,369.15025,507.46137)" id="g11757"><path d="m 0 0 c 0 -0.4 -0.5 -0.7 -1.1 -0.7 -0.6 0 -1.1 0.3 -1.1 0.7 0 0.4 0.5 0.7 1.1 0.7 C -0.5 0.7 0 0.4 0 0" id="path11759" class="glass-foam"/></g><g transform="matrix(1.25,0,0,-1.25,372.22485,507.31112)" id="g11761"><path d="m 0 0 c 0 -0.4 -0.5 -0.7 -1.1 -0.7 -0.6 0 -1.1 0.3 -1.1 0.7 0 0.4 0.5 0.7 1.1 0.7 C -0.5 0.7 0 0.4 0 0" id="path11763" class="glass-foam"/></g><g transform="matrix(1.25,0,0,-1.25,374.47475,507.46112)" id="g11765"><path d="m 0 0 c 0 -0.4 -0.5 -0.7 -1.1 -0.7 -0.6 0 -1.1 0.3 -1.1 0.7 0 0.4 0.5 0.7 1.1 0.7 C -0.5 0.7 0 0.4 0 0" id="path11767" class="glass-foam"/></g><g transform="matrix(1.25,0,0,-1.25,376.72465,507.76099)" id="g11769"><path d="m 0 0 c 0 -0.4 -0.5 -0.7 -1.1 -0.7 -0.6 0 -1.1 0.3 -1.1 0.7 0 0.4 0.5 0.7 1.1 0.7 C -0.5 0.7 0 0.4 0 0" id="path11771" class="glass-foam"/></g><g transform="matrix(1.25,0,0,-1.25,378.82445,507.61124)" id="g11773"><path d="m 0 0 c 0 -0.4 -0.5 -0.7 -1.1 -0.7 -0.6 0 -1.1 0.3 -1.1 0.7 0 0.4 0.5 0.7 1.1 0.7 C -0.5 0.7 0 0.4 0 0" id="path11775" class="glass-foam"/></g><g transform="matrix(1.25,0,0,-1.25,381.37445,507.46112)" id="g11777"><path d="m 0 0 c 0 -0.4 -0.5 -0.7 -1.1 -0.7 -0.6 0 -1.1 0.3 -1.1 0.7 0 0.4 0.5 0.7 1.1 0.7 C -0.5 0.7 0 0.4 0 0" id="path11779" class="glass-foam"/></g><g transform="matrix(1.25,0,0,-1.25,383.47425,507.46112)" id="g11781"><path d="m 0 0 c 0 -0.4 -0.5 -0.7 -1.1 -0.7 -0.6 0 -1.1 0.3 -1.1 0.7 0 0.4 0.5 0.7 1.1 0.7 C -0.5 0.7 0 0.4 0 0" id="path11783" class="glass-foam"/></g><g transform="matrix(1.25,0,0,-1.25,384.82425,507.91112)" id="g11785"><path d="m 0 0 c 0 -0.4 -0.5 -0.7 -1.1 -0.7 -0.6 0 -1.1 0.3 -1.1 0.7 0 0.4 0.5 0.7 1.1 0.7 C -0.5 0.7 0 0.4 0 0" id="path11787" class="glass-foam"/></g><g transform="matrix(1.25,0,0,-1.25,367.87525,509.33624)" id="g11789"><path d="m 0 0 c 0 -0.4 -0.5 -0.7 -1.1 -0.7 -0.6 0 -1.1 0.3 -1.1 0.7 0 0.4 0.5 0.7 1.1 0.7 C -0.5 0.7 0 0.4 0 0" id="path11791" class="glass-foam"/></g><g transform="matrix(1.25,0,0,-1.25,367.87545,510.46112)" id="g11793"><path d="m 0 0 c 0 -0.4 -0.5 -0.7 -1.1 -0.7 -0.6 0 -1.1 0.3 -1.1 0.7 0 0.4 0.5 0.7 1.1 0.7 C -0.5 0.7 0 0.4 0 0" id="path11795" class="glass-foam"/></g><g transform="matrix(1.25,0,0,-1.25,384.52425,510.31124)" id="g11797"><path d="m 0 0 c 0 -0.4 -0.5 -0.7 -1.1 -0.7 -0.6 0 -1.1 0.3 -1.1 0.7 0 0.4 0.5 0.7 1.1 0.7 C -0.5 0.7 0 0.4 0 0" id="path11799" class="glass-foam"/></g><g transform="matrix(1.25,0,0,-1.25,384.82425,511.51111)" id="g11801"><path d="m 0 0 c 0 -0.4 -0.5 -0.7 -1.1 -0.7 -0.6 0 -1.1 0.3 -1.1 0.7 0 0.4 0.5 0.7 1.1 0.7 C -0.5 0.7 0 0.4 0 0" id="path11803" class="glass-foam"/></g><g transform="matrix(1.25,0,0,-1.25,384.67435,513.16074)" id="g11805"><path d="m 0 0 c 0 -0.4 -0.5 -0.7 -1.1 -0.7 -0.6 0 -1.1 0.3 -1.1 0.7 0 0.4 0.5 0.7 1.1 0.7 C -0.5 0.7 0 0.4 0 0" id="path11807" class="glass-foam"/></g><g transform="matrix(1.25,0,0,-1.25,382.87475,513.01087)" id="g11809"><path d="m 0 0 c 0 -0.4 -0.5 -0.7 -1.1 -0.7 -0.6 0 -1.1 0.3 -1.1 0.7 0 0.4 0.5 0.7 1.1 0.7 C -0.5 0.7 0 0.4 0 0" id="path11811" class="glass-foam"/></g><g transform="matrix(1.25,0,0,-1.25,379.12465,513.46086)" id="g11813"><path d="m 0 0 c 0 -0.4 -0.5 -0.7 -1.1 -0.7 -0.6 0 -1.1 0.3 -1.1 0.7 0 0.4 0.5 0.7 1.1 0.7 C -0.5 0.7 0 0.4 0 0" id="path11815" class="glass-foam"/></g><g transform="matrix(1.25,0,0,-1.25,381.82435,513.68612)" id="g11817"><path d="m 0 0 c 0 -0.4 -0.5 -0.7 -1.1 -0.7 -0.6 0 -1.1 0.3 -1.1 0.7 0 0.4 0.5 0.7 1.1 0.7 C -0.5 0.7 0 0.4 0 0" id="path11819" class="glass-foam"/></g><g transform="matrix(1.25,0,0,-1.25,377.02495,513.61112)" id="g11821"><path d="m 0 0 c 0 -0.4 -0.5 -0.7 -1.1 -0.7 -0.6 0 -1.1 0.3 -1.1 0.7 0 0.4 0.5 0.7 1.1 0.7 C -0.5 0.7 0 0.4 0 0" id="path11823" class="glass-foam"/></g><g transform="matrix(1.25,0,0,-1.25,374.17515,512.56087)" id="g11825"><path d="m 0 0 c 0 -0.2 -0.6 -0.4 -1.3 -0.4 -0.7 0 -1.3 0.2 -1.3 0.4 0 0.2 0.6 0.4 1.3 0.4 C -0.6 0.4 0 0.2 0 0" id="path11827" class="glass-foam"/></g><g transform="matrix(1.25,0,0,-1.25,372.22535,513.46112)" id="g11829"><path d="m 0 0 c 0 -0.4 -0.5 -0.7 -1.1 -0.7 -0.6 0 -1.1 0.3 -1.1 0.7 0 0.4 0.5 0.7 1.1 0.7 C -0.5 0.7 0 0.4 0 0" id="path11831" class="glass-foam"/></g><g transform="matrix(1.25,0,0,-1.25,371.32535,514.66124)" id="g11833"><path d="m 0 0 c 0 -0.4 -0.5 -0.7 -1.1 -0.7 -0.6 0 -1.1 0.3 -1.1 0.7 0 0.4 0.5 0.7 1.1 0.7 C -0.5 0.7 0 0.4 0 0" id="path11835" class="glass-foam"/></g><g transform="matrix(1.25,0,0,-1.25,372.22535,515.86087)" id="g11837"><path d="m 0 0 c 0 -0.4 -0.5 -0.7 -1.1 -0.7 -0.6 0 -1.1 0.3 -1.1 0.7 0 0.4 0.5 0.7 1.1 0.7 C -0.5 0.7 0 0.4 0 0" id="path11839" class="glass-foam"/></g><g transform="matrix(1.25,0,0,-1.25,374.17535,514.58974)" id="g11841"><path d="M 0 0 C 0 -0.5 -0.7 -1 -1.5 -1 -2.3 -1 -3 -0.5 -3 0 -3 0.5 -2.3 1 -1.5 1 -0.7 1 0 0.5 0 0" id="path11843" class="glass-foam"/></g><g transform="matrix(1.25,0,0,-1.25,373.72515,517.28987)" id="g11845"><path d="M 0 0 C 0 -0.5 -0.7 -1 -1.5 -1 -2.3 -1 -3 -0.5 -3 0 -3 0.5 -2.3 1 -1.5 1 -0.7 1 0 0.5 0 0" id="path11847" class="glass-foam"/></g><g transform="matrix(1.25,0,0,-1.25,373.34985,515.86087)" id="g11849"><path d="m 0 0 c 0 -0.4 -0.5 -0.7 -1.1 -0.7 -0.6 0 -1.1 0.3 -1.1 0.7 0 0.4 0.5 0.7 1.1 0.7 C -0.5 0.7 0 0.4 0 0" id="path11851" class="glass-foam"/></g><g transform="matrix(1.25,0,0,-1.25,371.17485,516.01111)" id="g11853"><path d="m 0 0 c 0 -0.7 -0.5 -1.2 -1.1 -1.2 -0.6 0 -1.1 0.5 -1.1 1.2 0 0.7 0.5 1.2 1.1 1.2 C -0.5 1.2 0 0.7 0 0" id="path11855" class="glass-foam"/></g><g transform="matrix(1.25,0,0,-1.25,371.88765,518.53249)" id="g11857"><path d="m 0 0 c 0 -0.4 -0.3 -0.7 -0.6 -0.7 -0.3 0 -0.6 0.3 -0.6 0.7 0 0.4 0.3 0.7 0.6 0.7 C -0.3 0.7 0 0.4 0 0" id="path11859" class="glass-foam"/></g><g transform="matrix(1.25,0,0,-1.25,371.58775,519.46086)" id="g11861"><path d="m 0 0 c 0 -0.4 -0.3 -0.7 -0.6 -0.7 -0.3 0 -0.6 0.3 -0.6 0.7 0 0.4 0.3 0.7 0.6 0.7 C -0.3 0.7 0 0.4 0 0" id="path11863" class="glass-foam"/></g><g transform="matrix(1.25,0,0,-1.25,372.33765,520.36074)" id="g11865"><path d="m 0 0 c 0 -0.4 -0.3 -0.7 -0.6 -0.7 -0.3 0 -0.6 0.3 -0.6 0.7 0 0.4 0.3 0.7 0.6 0.7 C -0.3 0.7 0 0.4 0 0" id="path11867" class="glass-foam"/></g><g transform="matrix(1.25,0,0,-1.25,372.03775,521.68237)" id="g11869"><path d="m 0 0 c 0 -0.4 -0.3 -0.7 -0.6 -0.7 -0.3 0 -0.6 0.3 -0.6 0.7 0 0.4 0.3 0.7 0.6 0.7 C -0.3 0.7 0 0.4 0 0" id="path11871" class="glass-foam"/></g><g transform="matrix(1.25,0,0,-1.25,373.23765,521.38249)" id="g11873"><path d="m 0 0 c 0 -0.4 -0.3 -0.7 -0.6 -0.7 -0.3 0 -0.6 0.3 -0.6 0.7 0 0.4 0.3 0.7 0.6 0.7 C -0.3 0.7 0 0.4 0 0" id="path11875" class="glass-foam"/></g><g transform="matrix(1.25,0,0,-1.25,373.38725,519.91061)" id="g11877"><path d="m 0 0 c 0 -0.4 -0.3 -0.7 -0.6 -0.7 -0.3 0 -0.6 0.3 -0.6 0.7 0 0.4 0.3 0.7 0.6 0.7 C -0.3 0.7 0 0.4 0 0" id="path11879" class="glass-foam"/></g><g transform="matrix(1.25,0,0,-1.25,373.23285,522.87737)" id="g11881"><path d="m 0 0 c 0 -0.4 -0.3 -0.7 -0.6 -0.7 -0.3 0 -0.6 0.3 -0.6 0.7 0 0.4 0.3 0.7 0.6 0.7 C -0.3 0.7 0 0.4 0 0" id="path11883" class="glass-foam"/></g><g transform="matrix(1.25,0,0,-1.25,372.48725,522.76024)" id="g11885"><path d="m 0 0 c 0 -0.4 -0.3 -0.7 -0.6 -0.7 -0.3 0 -0.6 0.3 -0.6 0.7 0 0.4 0.3 0.7 0.6 0.7 C -0.3 0.7 0 0.4 0 0" id="path11887" class="glass-foam"/></g><g transform="matrix(1.25,0,0,-1.25,373.08725,523.96037)" id="g11889"><path d="m 0 0 c 0 -0.4 -0.3 -0.7 -0.6 -0.7 -0.3 0 -0.6 0.3 -0.6 0.7 0 0.4 0.3 0.7 0.6 0.7 C -0.3 0.7 0 0.4 0 0" id="path11891" class="glass-foam"/></g><g transform="matrix(1.25,0,0,-1.25,372.63725,525.16024)" id="g11893"><path d="m 0 0 c 0 -0.4 -0.3 -0.7 -0.6 -0.7 -0.3 0 -0.6 0.3 -0.6 0.7 0 0.4 0.3 0.7 0.6 0.7 C -0.3 0.7 0 0.4 0 0" id="path11895" class="glass-foam"/></g><g transform="matrix(1.25,0,0,-1.25,373.08975,526.65599)" id="g11897"><path d="m 0 0 c 0 -0.3 -0.2 -0.6 -0.5 -0.6 -0.3 0 -0.5 0.3 -0.5 0.6 0 0.3 0.2 0.6 0.5 0.6 C -0.2 0.6 0 0.3 0 0" id="path11899" class="glass-foam"/></g><g transform="matrix(1.25,0,0,-1.25,372.33765,518.26074)" id="g11901"><path d="m 0 0 c 0 -0.4 -0.3 -0.7 -0.6 -0.7 -0.3 0 -0.6 0.3 -0.6 0.7 0 0.4 0.3 0.7 0.6 0.7 C -0.3 0.7 0 0.4 0 0" id="path11903" class="glass-foam"/></g><g transform="matrix(1.25,0,0,-1.25,372.78765,519.31049)" id="g11905"><path d="m 0 0 c 0 -0.4 -0.3 -0.7 -0.6 -0.7 -0.3 0 -0.6 0.3 -0.6 0.7 0 0.4 0.3 0.7 0.6 0.7 C -0.3 0.7 0 0.4 0 0" id="path11907" class="glass-foam"/></g><g transform="matrix(1.25,0,0,-1.25,373.53745,518.26049)" id="g11909"><path d="m 0 0 c 0 -0.4 -0.3 -0.7 -0.6 -0.7 -0.3 0 -0.6 0.3 -0.6 0.7 0 0.4 0.3 0.7 0.6 0.7 C -0.3 0.7 0 0.4 0 0" id="path11911" class="glass-foam"/></g><g transform="matrix(1.25,0,0,-1.25,369.07515,513.91112)" id="g11913"><path d="m 0 0 c 0 -0.4 -0.5 -0.7 -1.1 -0.7 -0.6 0 -1.1 0.3 -1.1 0.7 0 0.4 0.5 0.7 1.1 0.7 C -0.5 0.7 0 0.4 0 0" id="path11915" class="glass-foam"/></g><g transform="matrix(1.25,0,0,-1.25,367.27515,512.71099)" id="g11917"><path d="m 0 0 c 0 -0.4 -0.5 -0.7 -1.1 -0.7 -0.6 0 -1.1 0.3 -1.1 0.7 0 0.4 0.5 0.7 1.1 0.7 C -0.5 0.7 0 0.4 0 0" id="path11919" class="glass-foam"/></g><g transform="matrix(1.25,0,0,-1.25,366.22515,511.51087)" id="g11921"><path d="m 0 0 c 0 -0.4 -0.5 -0.7 -1.1 -0.7 -0.6 0 -1.1 0.3 -1.1 0.7 0 0.4 0.5 0.7 1.1 0.7 C -0.5 0.7 0 0.4 0 0" id="path11923" class="glass-foam"/></g><g transform="matrix(1.25,0,0,-1.25,365.77535,509.56136)" id="g11925"><path d="m 0 0 c 0 -0.4 -0.5 -0.7 -1.1 -0.7 -0.6 0 -1.1 0.3 -1.1 0.7 0 0.4 0.5 0.7 1.1 0.7 C -0.5 0.7 0 0.4 0 0" id="path11927" class="glass-foam"/></g><g transform="matrix(1.25,0,0,-1.25,366.52545,507.91137)" id="g11929"><path d="m 0 0 c 0 -0.4 -0.5 -0.7 -1.1 -0.7 -0.6 0 -1.1 0.3 -1.1 0.7 0 0.4 0.5 0.7 1.1 0.7 C -0.5 0.7 0 0.4 0 0" id="path11931" class="glass-foam"/></g><g transform="matrix(1.25,0,0,-1.25,365.62565,510.46112)" id="g11933"><path d="m 0 0 c 0 -0.4 -0.5 -0.7 -1.1 -0.7 -0.6 0 -1.1 0.3 -1.1 0.7 0 0.4 0.5 0.7 1.1 0.7 C -0.5 0.7 0 0.4 0 0" id="path11935" class="glass-foam"/></g><g transform="matrix(1.25,0,0,-1.25,365.77565,513.31087)" id="g11937"><path d="m 0 0 c 0 -0.4 -0.5 -0.7 -1.1 -0.7 -0.6 0 -1.1 0.3 -1.1 0.7 0 0.4 0.5 0.7 1.1 0.7 C -0.5 0.7 0 0.4 0 0" id="path11939" class="glass-foam"/></g><g transform="matrix(1.25,0,0,-1.25,385.87425,508.66149)" id="g11941"><path d="m 0 0 c 0 -0.4 -0.5 -0.7 -1.1 -0.7 -0.6 0 -1.1 0.3 -1.1 0.7 0 0.4 0.5 0.7 1.1 0.7 C -0.5 0.7 0 0.4 0 0" id="path11943" class="glass-foam"/></g><g transform="matrix(1.25,0,0,-1.25,386.47425,510.16124)" id="g11945"><path d="m 0 0 c 0 -0.4 -0.5 -0.7 -1.1 -0.7 -0.6 0 -1.1 0.3 -1.1 0.7 0 0.4 0.5 0.7 1.1 0.7 C -0.5 0.7 0 0.4 0 0" id="path11947" class="glass-foam"/></g><g transform="matrix(1.25,0,0,-1.25,387.22435,509.86112)" id="g11949"><path d="m 0 0 c 0 -0.4 -0.5 -0.7 -1.1 -0.7 -0.6 0 -1.1 0.3 -1.1 0.7 0 0.4 0.5 0.7 1.1 0.7 C -0.5 0.7 0 0.4 0 0" id="path11951" class="glass-foam"/></g><g transform="matrix(1.25,0,0,-1.25,386.62445,513.46086)" id="g11953"><path d="m 0 0 c 0 -0.4 -0.5 -0.7 -1.1 -0.7 -0.6 0 -1.1 0.3 -1.1 0.7 0 0.4 0.5 0.7 1.1 0.7 C -0.5 0.7 0 0.4 0 0" id="path11955" class="glass-foam"/></g><g transform="matrix(1.25,0,0,-1.25,386.77415,512.11136)" id="g11957"><path d="m 0 0 c 0 -0.4 -0.5 -0.7 -1.1 -0.7 -0.6 0 -1.1 0.3 -1.1 0.7 0 0.4 0.5 0.7 1.1 0.7 C -0.5 0.7 0 0.4 0 0" id="path11959" class="glass-foam"/></g><g transform="matrix(1.25,0,0,-1.25,386.62435,511.06162)" id="g11961"><path d="m 0 0 c 0 -0.4 -0.5 -0.7 -1.1 -0.7 -0.6 0 -1.1 0.3 -1.1 0.7 0 0.4 0.5 0.7 1.1 0.7 C -0.5 0.7 0 0.4 0 0" id="path11963" class="glass-foam"/></g><g transform="matrix(1.25,0,0,-1.25,386.77415,508.21149)" id="g11965"><path d="m 0 0 c 0 -0.4 -0.5 -0.7 -1.1 -0.7 -0.6 0 -1.1 0.3 -1.1 0.7 0 0.4 0.5 0.7 1.1 0.7 C -0.5 0.7 0 0.4 0 0" id="path11967" class="glass-foam"/></g></g></svg>